# xmcd CD database file
#
# Track frame offsets:
#	150
#	14769
#	28908
#	40480
#	58941
#	71254
#	88233
#	98133
#	112351
#	130742
#	145112
#	157981
#
# Disc length: 2288 seconds
#
# Revision: 0
# Processed by: cddbd v1.5.2PL0 Copyright (c) Steve Scherf et al.
# Submitted via: CDex 1.81
#
DISCID=af08ee0c
DTITLE=Count Basie and His Orchestra - The Count Basie Story Volume 2
DYEAR=2011
DGENRE=Jazz
TTITLE0=Swingin' The Blues
TTITLE1=Sent For You Yesterday And Here You Come Today
TTITLE2=Tickle Toe
TTITLE3=Blue And Sentimental
TTITLE4=Time Out
TTITLE5=9.20 Special
TTITLE6=Red Bank Boogie
TTITLE7=Every Tub
TTITLE8=Dickie's Dream
TTITLE9=Texas Shuffle
TTITLE10=Out The Window
TTITLE11=Boogie Woogie (I May Be Wrong)
EXTD=YEAR: 2011
EXTT0=
EXTT1=
EXTT2=
EXTT3=
EXTT4=
EXTT5=
EXTT6=
EXTT7=
EXTT8=
EXTT9=
EXTT10=
EXTT11=
PLAYORDER=
